<svg width="22" height="22" viewBox="0 0 22 22" fill="none" xmlns="http://www.w3.org/2000/svg">
<path d="M10.9938 4.125C5.80569 4.125 1.23435 7.72105 0.0215988 12.4332C-0.0237479 12.6098 0.00293203 12.7972 0.0957692 12.9542C0.188606 13.1112 0.339996 13.2248 0.516634 13.2702C0.693273 13.3155 0.88069 13.2888 1.03766 13.196C1.19462 13.1032 1.30828 12.9518 1.35363 12.7751C2.39863 8.71479 6.44701 5.5 10.9938 5.5C15.5407 5.5 19.6019 8.71592 20.6466 12.7751C20.6919 12.9518 20.8056 13.1032 20.9626 13.196C21.1195 13.2888 21.307 13.3155 21.4836 13.2702C21.6602 13.2248 21.8116 13.1112 21.9045 12.9542C21.9973 12.7972 22.024 12.6098 21.9786 12.4332C20.7656 7.71992 16.182 4.125 10.9938 4.125ZM11.001 7.79167C8.56264 7.79167 6.57165 9.78267 6.57165 12.221C6.57165 14.6594 8.56264 16.6513 11.001 16.6513C13.4394 16.6513 15.4313 14.6594 15.4313 12.221C15.4313 9.78267 13.4394 7.79167 11.001 7.79167Z" fill="white"/>
</svg>
